<?xml version="1.0" standalone="no"?><!DOCTYPE svg PUBLIC "-//W3C//DTD SVG 1.1//EN" "http://www.w3.org/Graphics/SVG/1.1/DTD/svg11.dtd"><svg t="1598326810683" class="icon" viewBox="0 0 1024 1024" version="1.1" xmlns="http://www.w3.org/2000/svg" p-id="6068" xmlns:xlink="http://www.w3.org/1999/xlink" width="200" height="200"><defs><style type="text/css"></style></defs><path d="M509.866667 2.133333C791.466667 2.133333 1019.733333 230.4 1019.733333 512c2.133333 283.733333-228.266667 512-509.866666 512S0 795.733333 0 514.133333 228.266667 2.133333 509.866667 2.133333z" fill="#0094FF" p-id="6069"></path><path d="M791.466667 324.266667h-166.4v40.533333h166.4v-40.533333z m-81.066667 138.666666c-19.2 0-36.266667 6.4-46.933333 17.066667-12.8 10.666667-19.2 27.733333-19.2 46.933333h132.266666c-6.4-44.8-27.733333-64-66.133333-64z m4.266667 189.866667c12.8 0 27.733333-4.266667 40.533333-10.666667 12.8-6.4 21.333333-17.066667 25.6-27.733333H853.333333c-21.333333 66.133333-68.266667 100.266667-138.666666 100.266667-46.933333 0-83.2-14.933333-110.933334-42.666667-27.733333-27.733333-40.533333-66.133333-40.533333-113.066667 0-44.8 14.933333-83.2 42.666667-113.066666s64-44.8 108.8-44.8c29.866667 0 55.466667 6.4 78.933333 21.333333 21.333333 14.933333 38.4 34.133333 49.066667 57.6 10.666667 23.466667 17.066667 51.2 17.066666 81.066667v14.933333h-213.333333c0 23.466667 6.4 42.666667 19.2 55.466667 8.533333 12.8 25.6 21.333333 49.066667 21.333333z m-433.066667-17.066667h96c44.8 0 66.133333-17.066667 66.133333-53.333333 0-38.4-21.333333-57.6-64-57.6h-98.133333v110.933333z m0-174.933333h91.733333c17.066667 0 29.866667-4.266667 40.533334-12.8 10.666667-8.533333 14.933333-19.2 14.933333-36.266667 0-32-21.333333-46.933333-61.866667-46.933333h-85.333333v96zM192 296.533333h192c19.2 0 36.266667 2.133333 51.2 4.266667s27.733333 8.533333 40.533333 14.933333c12.8 6.4 21.333333 17.066667 29.866667 32 6.4 12.8 10.666667 29.866667 10.666667 49.066667 0 38.4-19.2 68.266667-55.466667 85.333333 25.6 6.4 42.666667 19.2 55.466667 36.266667 12.8 17.066667 19.2 40.533333 19.2 66.133333 0 17.066667-2.133333 32-8.533334 44.8-4.266667 12.8-12.8 23.466667-21.333333 34.133334-8.533333 8.533333-19.2 17.066667-32 23.466666-12.8 6.4-25.6 10.666667-38.4 12.8-12.8 2.133333-27.733333 4.266667-42.666667 4.266667H192V296.533333z" fill="#FFFFFF" p-id="6070"></path></svg>